<?xml version="1.0" standalone="no"?>
<!DOCTYPE svg PUBLIC "-//W3C//DTD SVG 1.1//EN" "http://www.w3.org/Graphics/SVG/1.1/DTD/svg11.dtd" >
<svg xmlns="http://www.w3.org/2000/svg">
<metadata></metadata>
<defs>
<font id="cmc7regular" horiz-adv-x="1538" >
<font-face units-per-em="2048" ascent="1638" descent="-410" />
<missing-glyph horiz-adv-x="500" />
<glyph />
<glyph />
<glyph unicode="&#xd;" />
<glyph unicode=" " />
<glyph unicode="!" d="M0 0h68v328h-68v-328zM0 856l68 -205v983h-68v-778zM268 0h66v328h-66v-328zM268 651h66v983h-66v-983zM401 0h66v328h-66v-328zM401 651h66v983h-66v-983zM668 0h67v328h-67v-328zM668 651l67 205v778h-67v-983z" />
<glyph unicode="&#x22;" d="M0 1210l68 -67v491h-68v-424zM133 1143l68 67v424h-68v-491zM401 1210l66 -67v491h-66v-424zM535 1143l67 67v424h-67v-491z" />
<glyph unicode="&#x26;" d="M0 182l68 -41v512l-68 -41v-430zM0 1024l68 -41v492l-68 -41v-410zM133 100l68 -41v676l-68 -41v-594zM133 938l68 -41v655l-68 -41v-573zM268 41l66 -41v1638l-66 -41v-1556zM268 41l66 -41v1638l-66 -41v-1556zM401 2h66v328h-66v-328zM401 655h66v328h-66v-328z M401 1311h66v327h-66v-327zM535 2h67v328h-67v-328zM535 655h67v328h-67v-328zM535 1311h67v327h-67v-327zM803 0h65v655h-65v-655zM803 1309h65v327h-65v-327zM1069 84l68 41v532h-68v-573zM1069 1229l68 -41v450h-68v-409z" />
<glyph unicode="'" d="M0 1044l68 -143v737h-68v-594zM268 819h66v819h-66v-819zM535 819h67v819h-67v-819zM668 901l67 143v594h-67v-737z" />
<glyph unicode="(" d="M0 522l68 -112v819l-68 -113v-594zM133 317l68 -112v1229l-68 -113v-1004zM268 113l66 -113v1638l-66 -112v-1413zM535 -4h67v328h-67v-328zM535 1309h67v327h-67v-327z" />
<glyph unicode=")" d="M0 -4v328h68v-328h-68zM0 1309v327h68v-327h-68zM268 0v1638l66 -102v-1423zM401 205v1229l66 -103v-1014zM535 410v819l67 -103v-604z" />
<glyph unicode="," d="M0 330h68v489l-68 -67v-422zM133 0h68v164l-68 -64v-100zM133 334h68v485h-68v-485zM401 0h66v819h-66v-819zM668 205l67 69v478l-67 67v-614z" />
<glyph unicode="-" d="M0 655h68v328h-68v-328zM133 655h68v328h-68v-328zM268 655h66v328h-66v-328zM401 655h66v328h-66v-328zM668 655h67v328h-67v-328zM803 655h65v328h-65v-328zM1069 655h68v328h-68v-328z" />
<glyph unicode="." d="M0 0h68v547h-68v-547zM133 0h68v547h-68v-547zM268 0h66v547h-66v-547zM401 0h66v547h-66v-547z" />
<glyph unicode="/" d="M0 2h68v496l-68 -86v-410zM133 76l68 78v495l-68 -86v-487zM268 229l66 78v496l-66 -86v-488zM535 537l67 77v496l-67 -86v-487zM668 690l67 78v496l-67 -86v-488zM803 844l65 78v495l-65 -86v-487zM1069 1141l68 78v409h-68v-487z" />
<glyph unicode="0" d="M0 256l68 -72v1250l-68 -72v-1106zM133 102l68 -61v1515l-68 -61v-1393zM133 102l68 -61v1515l-68 -61v-1393zM401 -2h66v438l-66 62v-500zM401 1137l66 61v438h-66v-499zM535 0h67v410h-67v-410zM535 1225h67v409h-67v-409zM668 -2h67v500l-67 -62v-438zM668 1198 l67 -61v499h-67v-438zM803 0l65 61v1516l-65 61v-1638zM803 0l65 61v1516l-65 61v-1638zM1071 205v1229l66 -72v-1086z" />
<glyph unicode="1" d="M0 0h68v541h-68v-541zM0 889l68 41v409l-68 -41v-409zM268 0h66v541h-66v-541zM268 1022l66 41v410l-66 -41v-410zM401 0h66v541h-66v-541zM401 1094l66 41v409l-66 -41v-409zM535 0h67v1608l-67 -41v-1567zM668 0h67v1638h-67v-1638zM936 0h68v737h-68v-737zM1069 0h68 v737h-68v-737z" />
<glyph unicode="2" d="M0 2h68v565l-68 -30v-535zM0 1061h68v471l-68 -143v-328zM133 2h68v633l-68 -31v-602zM133 1061h68v573l-68 -41v-532zM401 0h66v780l-66 -30v-750zM401 1307h66v329h-66v-329zM668 0h67v328h-67v-328zM668 543l67 41v334l-67 -31v-344zM668 1311h67v327h-67v-327zM803 0 h65v328h-65v-328zM803 625l65 41v327l-65 -30v-338zM803 1311h65v327h-65v-327zM936 0h68v328h-68v-328zM936 707l68 41v849l-68 41v-931zM1069 0h68v328h-68v-328zM1069 788l68 41v584l-68 123v-748z" />
<glyph unicode="3" d="M0 227l68 -123v439h-68v-316zM0 1098h68v438l-68 -123v-315zM268 2h66v541h-66v-541zM268 1096h66v540h-66v-540zM401 0h66v451h-66v-451zM401 1186h66v450h-66v-450zM668 2h67v410h-67v-410zM668 655h67v328h-67v-328zM668 1227h67v409h-67v-409zM803 2h65v410h-65v-410 zM803 655h65v328h-65v-328zM803 1227h65v409h-65v-409zM936 0l68 20v1598l-68 20v-1638zM1069 84l68 143v512h-68v-655zM1069 895h68v512l-68 143v-655z" />
<glyph unicode="4" d="M0 246h68v901l-68 -41v-860zM268 246h66v1065l-66 -43v-1022zM401 246h66v327h-66v-327zM401 856l66 51v492l-66 -51v-492zM535 246h67v327h-67v-327zM535 940l67 51v492l-67 -51v-492zM803 0h65v655h-65v-655zM803 1096l65 51v491l-65 -51v-491zM936 0h68v655h-68v-655z M936 1143h68v491h-68v-491zM1069 0h68v655h-68v-655zM1069 1143h68v491h-68v-491z" />
<glyph unicode="5" d="M0 -2h68v369h-68v-369zM0 696h68v942h-68v-942zM133 -2h68v369h-68v-369zM133 696h68v942h-68v-942zM268 -2h66v369h-66v-369zM268 696h66v328h-66v-328zM268 1266h66v368h-66v-368zM401 -2h66v369h-66v-369zM401 696h66v328h-66v-328zM401 1266h66v368h-66v-368zM668 -2 h67v369h-67v-369zM668 696h67v328h-67v-328zM668 1266h67v368h-67v-368zM936 0l68 41v942l-68 41v-1024zM936 1266h68v368h-68v-368zM1069 70l68 143v557l-68 143v-843zM1069 1266h68v368h-68v-368z" />
<glyph unicode="6" d="M0 225l68 -123v1434l-68 -123v-1188zM133 41l68 -41v1638l-68 -41v-1556zM268 4l66 -2v330h-66v-328zM268 655h66v328h-66v-328zM268 1311h66v327h-66v-327zM535 2h67v330h-67v-330zM535 655h67v328h-67v-328zM535 1311h67v327h-67v-327zM668 2h67v330h-67v-330zM668 655 h67v328h-67v-328zM668 1311h67v327h-67v-327zM936 0l68 20v943l-68 20v-983zM936 1229h68v389l-68 20v-409zM1069 82l68 123v573l-68 123v-819zM1069 1229h68v205l-68 122v-327z" />
<glyph unicode="7" d="M0 0h68v410h-68v-410zM0 1065h68v573h-68v-573zM268 0h66v606l-66 -76v-530zM268 1268h66v368h-66v-368zM535 231l67 72v612l-67 -75v-609zM535 1268h67v368h-67v-368zM668 385l67 72v622l-67 -75v-619zM668 1268h67v368h-67v-368zM803 530l65 74v1034h-65v-1108z M936 672l68 71v891h-68v-962zM1069 811l68 78v747h-68v-825z" />
<glyph unicode="8" d="M0 221l68 -143v573h-68v-430zM0 985h68v574l-68 -144v-430zM133 20l68 -20v737h-68v-717zM133 905h68v737l-68 -20v-717zM401 0h66v330h-66v-330zM401 655h66v328h-66v-328zM401 655h66v328h-66v-328zM401 655h66v328h-66v-328zM401 1311h66v327h-66v-327zM535 0h67v330 h-67v-330zM535 655h67v328h-67v-328zM535 655h67v328h-67v-328zM535 655h67v328h-67v-328zM535 1311h67v327h-67v-327zM668 0h67v330h-67v-330zM668 655h67v328h-67v-328zM668 655h67v328h-67v-328zM668 655h67v328h-67v-328zM668 1311h67v327h-67v-327zM936 0l68 20v717 h-68v-737zM936 905h68v717l-68 20v-737zM1069 78l68 143v430h-68v-573zM1069 983h68v430l-68 143v-573z" />
<glyph unicode="9" d="M0 205l68 -123v328h-68v-205zM0 877l68 -144v819l-68 -143v-532zM133 41l68 -41v410h-68v-369zM133 696l68 -41v983l-68 -41v-901zM401 2h66v330h-66v-330zM401 655h66v328h-66v-328zM401 1311h66v327h-66v-327zM535 2h67v330h-67v-330zM535 655h67v328h-67v-328z M535 1311h67v327h-67v-327zM803 2h65v330h-65v-330zM803 655h65v328h-65v-328zM803 1311h65v327h-65v-327zM936 0l68 41v1556l-68 41v-1638zM1069 82l68 123v1229l-68 122v-1474z" />
<glyph unicode="?" d="M0 0h68v328h-68v-328zM0 492h68v368l-68 -65v-303zM0 1311h68v327h-68v-327zM133 0h68v328h-68v-328zM133 492h68v491l-68 -68v-423zM133 1311h68v327h-68v-327zM268 0h66v328h-66v-328zM268 492h66v491h-66v-491zM268 1311h66v327zM268 1311h66v327h-66v-327zM268 1638z M535 655h67v328h-67v-328zM535 1309h67v327h-67v-327zM803 655h65v983h-65v-983zM936 696l68 82v738l-68 81v-901zM1069 881l68 123v286l-68 123v-532z" />
<glyph unicode="@" d="M0 307l68 -82v533l-68 -82v-369zM0 1145h68v450l-68 -82v-368zM268 72l66 -41v921l-66 -61v-819zM268 1147h66v491h-66v-491zM401 2h66v328h-66v-328zM401 655h66v328h-66v-328zM401 1311h66v327h-66v-327zM535 0h67v328h-67v-328zM535 655h67v328h-67v-328zM535 1311h67 v327h-67v-327zM668 0h67v328h-67v-328zM668 655h67v328h-67v-328zM668 1311h67v327h-67v-327zM803 0l65 41v1556l-65 41v-1638zM1069 225l68 82v1024l-68 82v-1188z" />
<glyph unicode="A" d="M0 0h68v1194l-68 -86v-1108zM133 0h68v1374l-68 -84v-1290zM401 268h66v389h-66v-389zM401 1147h66v491h-66v-491zM535 268h67v387h-67v-387zM535 1206h67v434h-67v-434zM668 268h67v389h-67v-389zM668 1147h67v491h-67v-491zM803 0h65v1378l-65 127v-1505zM936 0h68 v1137l-68 127v-1264z" />
<glyph unicode="B" d="M0 0h68v1638h-68v-1638zM268 0h66v1638h-66v-1638zM401 2h66v328h-66v-328zM401 655h66v328h-66v-328zM401 1313h66v327h-66v-327zM668 2h67v328h-67v-328zM668 655h67v328h-67v-328zM668 1313h67v327h-67v-327zM803 2h65v328h-65v-328zM803 655h65v328h-65v-328z M803 1313h65v327h-65v-327zM1069 2l68 21v696l-68 20v-737zM1069 903l68 21v696l-68 20v-737zM1204 57l66 113v369l-66 123v-605zM1204 979l66 123v368l-66 93v-584z" />
<glyph unicode="C" d="M0 389l68 -61v983l-68 -62v-860zM133 276l68 -53v1192l-68 -53v-1086zM268 184l66 -51v1372l-66 -51v-1270zM401 96l66 -26v422l-66 45v-441zM401 1100l66 45v422l-66 -27v-440zM668 18l67 -12v404l-67 18v-410zM668 1214l67 15v407l-67 -10v-412zM936 -2h68v389h-68 v-389zM936 1245h68v389h-68v-389zM1204 10l66 15v409l-66 -20v-404zM1204 1225l66 -15v410l-66 8v-403z" />
<glyph unicode="D" d="M0 0h68v410h-68v-410zM0 1227h68v409h-68v-409zM268 0h66v1638h-66v-1638zM401 0h66v1638h-66v-1638zM535 0h67v410h-67v-410zM535 1227h67v409h-67v-409zM803 -2l65 20v410l-65 -20v-410zM803 1227l65 -21v410l-65 20v-409zM1069 164l68 61v1188l-68 62v-1311zM1204 328 l66 123v737l-66 123v-983z" />
<glyph unicode="E" d="M0 0h68v1638h-68v-1638zM133 0h68v1638h-68v-1638zM268 0h66v332h-66v-332zM268 655h66v328h-66v-328zM268 1305h66v333h-66v-333zM401 0h66v332h-66v-332zM401 655h66v328h-66v-328zM401 1305h66v333h-66v-333zM668 0h67v406h-67v-406zM668 1229h67v409h-67v-409zM803 0 h65v406h-65v-406zM803 1229h65v409h-65v-409zM936 0h68v406h-68v-406zM936 1229h68v409h-68v-409z" />
<glyph unicode="F" d="M0 0h68v1638h-68v-1638zM133 0h68v1638h-68v-1638zM268 0h66v1638h-66v-1638zM535 532h67v390h-67v-390zM535 1249h67v389h-67v-389zM668 532h67v390h-67v-390zM668 1249h67v389h-67v-389zM936 532h68v390h-68v-390zM936 1249h68v389h-68v-389zM1204 532h66v390h-66v-390 zM1204 1249h66v389h-66v-389z" />
<glyph unicode="G" d="M0 451l68 -82v901l-68 -82v-737zM268 242l66 -41v415l-66 35v-409zM268 983v410l66 41v-416zM401 164l66 -33v420l-66 35v-422zM401 1049v421l66 33v-420zM535 96l67 -28v424l-67 28v-424zM535 1114v424l67 29v-424zM668 37l67 -17v408l-67 29v-420zM668 1178v419l67 17 v-408zM936 -4h68v307l-68 29v-336zM936 635h68v328h-68v-328zM936 1303v335h68v-307zM1204 23l66 20v922h-66v-942zM1204 1270h66v307l-66 20v-327z" />
<glyph unicode="H" d="M0 0h68v1638h-68v-1638zM268 0h66v1638h-66v-1638zM401 451h66v737h-66v-737zM668 451h67v737h-67v-737zM936 451h68v737h-68v-737zM1069 0h68v1638h-68v-1638zM1204 0h66v1638h-66v-1638z" />
<glyph unicode="I" d="M0 0h68v492h-68v-492zM0 1143h68v491h-68v-491zM133 0h68v492h-68v-492zM133 1143h68v491h-68v-491zM268 0h66v492h-66v-492zM268 1143h66v491h-66v-491zM401 0h66v1638h-66v-1638zM535 0h67v1638h-67v-1638zM668 0h67v492h-67v-492zM668 1143h67v491h-67v-491zM936 0h68 v492h-68v-492zM936 1143h68v491h-68v-491z" />
<glyph unicode="J" d="M0 211l68 -143v839h-68v-696zM268 -2h66v737h-66v-737zM401 -2h66v545h-66v-545zM401 1221h66v415h-66v-415zM668 -2h67v545h-67v-545zM668 1221h67v415h-67v-415zM803 -2h65v545h-65v-545zM803 1221h65v415h-65v-415zM936 0h68v1638h-68v-1638zM1204 61l66 144v1433h-66 v-1577z" />
<glyph unicode="K" d="M0 0h68v1638h-68v-1638zM133 0h68v1638h-68v-1638zM401 387l66 -31v926l-66 -31v-864zM668 258l67 -31v418l-67 31v-418zM668 950l67 31v418l-67 -31v-418zM803 197l65 -31v418l-65 30v-417zM803 1012l65 30v418l-65 -30v-418zM1069 74l68 -31v418l-68 31v-418z M1069 1135l68 32v418l-68 -33v-417zM1204 -6h66v409h-66v-409zM1204 1225h66v409h-66v-409z" />
<glyph unicode="L" d="M0 0h68v1638h-68v-1638zM133 0h68v1638h-68v-1638zM401 0h66v1638h-66v-1638zM535 0h67v737h-67v-737zM668 0h67v737h-67v-737zM936 0h68v737h-68v-737zM1204 0h66v737h-66v-737z" />
<glyph unicode="M" d="M0 0h68v1638h-68v-1638zM133 0h68v1638h-68v-1638zM268 840l66 -62v738l-66 61v-737zM535 586l67 -62v738l-67 61v-737zM803 692l65 62v737l-65 -61v-738zM1069 0h68v1638h-68v-1638zM1204 0h66v1638h-66v-1638z" />
<glyph unicode="N" d="M0 0h68v1638h-68v-1638zM133 0h68v1638h-68v-1638zM268 860l66 -51v737l-66 51v-737zM535 643l67 -51v737l-67 51v-737zM668 532l67 -51v738l-67 51v-738zM803 0h65v1638h-65v-1638zM936 0h68v1638h-68v-1638z" />
<glyph unicode="O" d="M0 287l68 -82v1229l-68 -84v-1063zM268 70l66 -52v492l-66 51v-491zM268 1057l66 51v491l-66 -51v-491zM401 -2h66v430l-66 51v-481zM401 1159l66 51v430h-66v-481zM535 -2h67v430h-67v-430zM535 1210h67v430h-67v-430zM668 -2h67v508l-67 -57v-451zM668 1169l67 -57v528 h-67v-471zM803 49l65 51v543l-65 -57v-537zM803 1032l65 -57v573l-65 51v-567zM936 154l68 61v1208l-68 62v-1331z" />
<glyph unicode="P" d="M0 0h68v1638h-68v-1638zM133 0h68v1638h-68v-1638zM401 532h66v390h-66v-390zM401 1227h66v409h-66v-409zM401 1249h66v389h-66v-389zM535 532h67v390h-67v-390zM535 1227h67v409h-67v-409zM535 1249h67v389h-67v-389zM803 532h65v390h-65v-390zM803 1227h65v409h-65 v-409zM803 1249h65v389h-65v-389zM1069 657l68 62v860l-68 61v-983zM1204 778l66 62v614l-66 62v-738z" />
<glyph unicode="Q" d="M0 225l68 -51v1290l-68 -51v-1188zM268 61l66 -51v1618l-66 -51v-1516zM535 0h67v410h-67v-410zM535 1225h67v409h-67v-409zM803 33l65 24v426h-65v-450zM803 1143h65v426l-65 24v-450zM936 82l68 24v1393l-68 37v-1454zM1069 119l68 -47v792l-68 47v-792zM1204 43 l66 -47v792l-66 48v-793z" />
<glyph unicode="R" d="M0 0h68v1638h-68v-1638zM133 0h68v1638h-68v-1638zM401 532h66v390h-66v-390zM401 1249h66v389h-66v-389zM668 530l67 -61v453h-67v-392zM668 1249h67v389h-67v-389zM936 268l68 -67v434l-68 82v-449zM936 1249h68v389h-68v-389zM1069 133l68 -72v418l-68 82v-428z M1069 819l68 51v717l-68 51v-819zM1204 0h66v342l-66 78v-420zM1204 911l66 52v542l-66 49v-643z" />
<glyph unicode="S" d="M0 0h68v420l-68 41v-461zM0 993l68 -123v594l-68 -123v-348zM133 -2h68v358l-68 41v-399zM133 829l68 -30v737l-68 -31v-676zM401 -2h66v340h-66v-340zM401 709l66 -25v328l-66 24v-327zM401 1282l66 10v328l-66 -10v-328zM535 -2h67v328h-67v-328zM535 668l67 -25v328 l-67 24v-327zM535 1313h67v327h-67v-327zM803 -2h65v328h-65v-328zM803 606l65 -24v327l-65 25v-328zM803 1313l65 -13v328l-65 12v-327zM936 8l68 31v811l-68 31v-873zM936 1288l68 -31v328l-68 31v-328zM1204 141l66 123v389l-66 123v-635zM1204 1165l66 -41v328l-66 41 v-328z" />
<glyph unicode="T" d="M0 901h68v737h-68v-737zM133 901h68v737h-68v-737zM268 0h66v1638h-66v-1638zM401 0h66v1638h-66v-1638zM535 0h67v1638h-67v-1638zM803 901h65v737h-65v-737zM936 901h68v737h-68v-737z" />
<glyph unicode="U" d="M0 334l68 -47v1351h-68v-1304zM268 170l66 -47v1515h-66v-1468zM535 0h67v758h-67v-758zM668 0h67v758h-67v-758zM936 20l68 62v737h-68v-799zM1069 143l68 62v1433h-68v-1495zM1204 266l66 62v1310h-66v-1372z" />
<glyph unicode="V" d="M0 733l68 -86v991h-68v-905zM268 442l66 -82v1051l-66 62v-1031zM535 141l67 -80v1063l-67 62v-1045zM668 0h67v1145l-67 -82v-1063zM803 100l65 103v1085l-65 -82v-1106zM936 291l68 102v1039l-68 -82v-1059zM1204 666l66 98v874h-66v-972z" />
<glyph unicode="W" d="M0 385l68 -102v1351h-68v-1249zM268 0l66 102v902l-66 -103v-901zM401 225l66 103v880l-66 -102v-881zM535 410l67 102v901l-67 -102v-901zM803 328l65 -113v870l-65 103v-860zM936 109l68 -113v905l-68 103v-895zM1204 283l66 102v1249h-66v-1351z" />
<glyph unicode="X" d="M0 -4h68v450l-68 -61v-389zM0 1270l68 -62v430h-68v-368zM268 0l66 61v635l-66 -61v-635zM268 1001l66 -61v635l-66 61v-635zM535 266l67 62v983l-67 61v-1106zM668 348l67 -61v1028l-67 -62v-905zM803 225l65 -61v1274l-65 -62v-1151zM1069 2h68v559l-68 62v-621z M1069 1042l68 62v532h-68v-594zM1204 0h66v430l-66 62v-492zM1204 1186l66 61v389h-66v-450z" />
<glyph unicode="Y" d="M0 879l68 -62v819h-68v-757zM133 776l68 -61v758l-68 61v-758zM401 0h66v1249l-66 62v-1311zM668 0h67v1208l-67 -61v-1147zM803 0h65v1311l-65 -62v-1249zM936 551l68 61v820l-68 -62v-819zM1204 817l66 62v757h-66v-819z" />
<glyph unicode="Z" d="M0 2h68v557l-68 -55v-502zM0 1268h68v368h-68v-368zM133 2h68v668l-68 -56v-612zM133 1268h68v368h-68v-368zM268 2h66v782l-66 -55v-727zM268 1268h66v368h-66v-368zM535 2h67v987l-67 -55v-932zM535 1268h67v368h-67v-368zM803 0h65v369h-65v-369zM803 -4h65v369h-65 v-369zM803 758l65 55v825h-65v-880zM936 0h68v369h-68v-369zM936 866l68 56v718h-68v-774zM1204 -2h66v545h-66v-545zM1204 1071l66 55v506h-66v-561z" />
<glyph unicode="[" d="M0 0v997l68 39v-999zM266 145v998l68 39v-1000zM399 221v998l70 38v-999zM537 297v997l67 39v-999zM537 1298l67 35zM670 377v997l67 39v-999zM670 1374l67 39zM803 457v997l67 39v-999zM1071 614v992l68 36v-991z" />
<glyph unicode="\" d="M0 0h68v1638h-68v-1638zM133 0h68v1638h-68v-1638zM268 0h66v1638h-66v-1638zM401 0h66v1638h-66v-1638zM535 0h67v1638h-67v-1638zM668 0h67v1638h-67v-1638zM803 0h65v1638h-65v-1638zM936 0h68v1638h-68v-1638zM1069 0h68v1638h-68v-1638zM1204 0h66v1638h-66v-1638z M1337 0h66v1638h-66v-1638zM1470 0h68v328h-68v-328zM1470 328h68v327h-68v-327zM1470 655h68v328h-68v-328zM1470 983h68v328h-68v-328zM1470 1311h68v327h-68v-327z" />
<glyph unicode="]" d="M0 47v944h68v-944h-68zM133 47v944h68v-944h-68zM401 47v944h68v-944h-68zM537 47v944h67v-944h-67zM670 47v1378h67v-1378h-67zM805 47v1378h65v-1378h-65zM1071 47v1378h68v-1378h-68z" />
<glyph unicode="_" d="M0 0h68v328h-68v-328zM133 0h68v328h-68v-328zM268 0h66v328h-66v-328zM401 0h66v328h-66v-328zM535 0h67v328h-67v-328zM668 0h67v328h-67v-328zM803 0h65v328h-65v-328z" />
<glyph unicode="a" d="M0 0h68v1194l-68 -86v-1108zM133 0h68v1374l-68 -84v-1290zM401 268h66v389h-66v-389zM401 1147h66v491h-66v-491zM535 268h67v387h-67v-387zM535 1206h67v434h-67v-434zM668 268h67v389h-67v-389zM668 1147h67v491h-67v-491zM803 0h65v1378l-65 127v-1505zM936 0h68 v1137l-68 127v-1264z" />
<glyph unicode="b" d="M0 0h68v1638h-68v-1638zM268 0h66v1638h-66v-1638zM401 2h66v328h-66v-328zM401 655h66v328h-66v-328zM401 1313h66v327h-66v-327zM668 2h67v328h-67v-328zM668 655h67v328h-67v-328zM668 1313h67v327h-67v-327zM803 2h65v328h-65v-328zM803 655h65v328h-65v-328z M803 1313h65v327h-65v-327zM1069 2l68 21v696l-68 20v-737zM1069 903l68 21v696l-68 20v-737zM1204 57l66 113v369l-66 123v-605zM1204 979l66 123v368l-66 93v-584z" />
<glyph unicode="c" d="M0 389l68 -61v983l-68 -62v-860zM133 276l68 -53v1192l-68 -53v-1086zM268 184l66 -51v1372l-66 -51v-1270zM401 96l66 -26v422l-66 45v-441zM401 1100l66 45v422l-66 -27v-440zM668 18l67 -12v404l-67 18v-410zM668 1214l67 15v407l-67 -10v-412zM936 -2h68v389h-68 v-389zM936 1245h68v389h-68v-389zM1204 10l66 15v409l-66 -20v-404zM1204 1225l66 -15v410l-66 8v-403z" />
<glyph unicode="d" d="M0 0h68v410h-68v-410zM0 1227h68v409h-68v-409zM268 0h66v1638h-66v-1638zM401 0h66v1638h-66v-1638zM535 0h67v410h-67v-410zM535 1227h67v409h-67v-409zM803 -2l65 20v410l-65 -20v-410zM803 1227l65 -21v410l-65 20v-409zM1069 164l68 61v1188l-68 62v-1311zM1204 328 l66 123v737l-66 123v-983z" />
<glyph unicode="e" d="M0 0h68v1638h-68v-1638zM133 0h68v1638h-68v-1638zM268 0h66v332h-66v-332zM268 655h66v328h-66v-328zM268 1305h66v333h-66v-333zM401 0h66v332h-66v-332zM401 655h66v328h-66v-328zM401 1305h66v333h-66v-333zM668 0h67v406h-67v-406zM668 1229h67v409h-67v-409zM803 0 h65v406h-65v-406zM803 1229h65v409h-65v-409zM936 0h68v406h-68v-406zM936 1229h68v409h-68v-409z" />
<glyph unicode="f" d="M0 0h68v1638h-68v-1638zM133 0h68v1638h-68v-1638zM268 0h66v1638h-66v-1638zM535 532h67v390h-67v-390zM535 1249h67v389h-67v-389zM668 532h67v390h-67v-390zM668 1249h67v389h-67v-389zM936 532h68v390h-68v-390zM936 1249h68v389h-68v-389zM1204 532h66v390h-66v-390 zM1204 1249h66v389h-66v-389z" />
<glyph unicode="g" d="M0 451l68 -82v901l-68 -82v-737zM268 242l66 -41v415l-66 35v-409zM268 983v410l66 41v-416zM401 164l66 -33v420l-66 35v-422zM401 1049v421l66 33v-420zM535 96l67 -28v424l-67 28v-424zM535 1114v424l67 29v-424zM668 37l67 -17v408l-67 29v-420zM668 1178v419l67 17 v-408zM936 -4h68v307l-68 29v-336zM936 635h68v328h-68v-328zM936 1303v335h68v-307zM1204 23l66 20v922h-66v-942zM1204 1270h66v307l-66 20v-327z" />
<glyph unicode="h" d="M0 0h68v1638h-68v-1638zM268 0h66v1638h-66v-1638zM401 451h66v737h-66v-737zM668 451h67v737h-67v-737zM936 451h68v737h-68v-737zM1069 0h68v1638h-68v-1638zM1204 0h66v1638h-66v-1638z" />
<glyph unicode="i" d="M0 0h68v492h-68v-492zM0 1143h68v491h-68v-491zM133 0h68v492h-68v-492zM133 1143h68v491h-68v-491zM268 0h66v492h-66v-492zM268 1143h66v491h-66v-491zM401 0h66v1638h-66v-1638zM535 0h67v1638h-67v-1638zM668 0h67v492h-67v-492zM668 1143h67v491h-67v-491zM936 0h68 v492h-68v-492zM936 1143h68v491h-68v-491z" />
<glyph unicode="j" d="M0 211l68 -143v839h-68v-696zM268 -2h66v737h-66v-737zM401 -2h66v545h-66v-545zM401 1221h66v415h-66v-415zM668 -2h67v545h-67v-545zM668 1221h67v415h-67v-415zM803 -2h65v545h-65v-545zM803 1221h65v415h-65v-415zM936 0h68v1638h-68v-1638zM1204 61l66 144v1433h-66 v-1577z" />
<glyph unicode="k" d="M0 0h68v1638h-68v-1638zM133 0h68v1638h-68v-1638zM401 387l66 -31v926l-66 -31v-864zM668 258l67 -31v418l-67 31v-418zM668 950l67 31v418l-67 -31v-418zM803 197l65 -31v418l-65 30v-417zM803 1012l65 30v418l-65 -30v-418zM1069 74l68 -31v418l-68 31v-418z M1069 1135l68 32v418l-68 -33v-417zM1204 -6h66v409h-66v-409zM1204 1225h66v409h-66v-409z" />
<glyph unicode="l" d="M0 0h68v1638h-68v-1638zM133 0h68v1638h-68v-1638zM401 0h66v1638h-66v-1638zM535 0h67v737h-67v-737zM668 0h67v737h-67v-737zM936 0h68v737h-68v-737zM1204 0h66v737h-66v-737z" />
<glyph unicode="m" d="M0 0h68v1638h-68v-1638zM133 0h68v1638h-68v-1638zM268 840l66 -62v738l-66 61v-737zM535 586l67 -62v738l-67 61v-737zM803 692l65 62v737l-65 -61v-738zM1069 0h68v1638h-68v-1638zM1204 0h66v1638h-66v-1638z" />
<glyph unicode="n" d="M0 0h68v1638h-68v-1638zM133 0h68v1638h-68v-1638zM268 860l66 -51v737l-66 51v-737zM535 643l67 -51v737l-67 51v-737zM668 532l67 -51v738l-67 51v-738zM803 0h65v1638h-65v-1638zM936 0h68v1638h-68v-1638z" />
<glyph unicode="o" d="M0 287l68 -82v1229l-68 -84v-1063zM268 70l66 -52v492l-66 51v-491zM268 1057l66 51v491l-66 -51v-491zM401 -2h66v430l-66 51v-481zM401 1159l66 51v430h-66v-481zM535 -2h67v430h-67v-430zM535 1210h67v430h-67v-430zM668 -2h67v508l-67 -57v-451zM668 1169l67 -57v528 h-67v-471zM803 49l65 51v543l-65 -57v-537zM803 1032l65 -57v573l-65 51v-567zM936 154l68 61v1208l-68 62v-1331z" />
<glyph unicode="p" d="M0 0h68v1638h-68v-1638zM133 0h68v1638h-68v-1638zM401 532h66v390h-66v-390zM401 1227h66v409h-66v-409zM401 1249h66v389h-66v-389zM535 532h67v390h-67v-390zM535 1227h67v409h-67v-409zM535 1249h67v389h-67v-389zM803 532h65v390h-65v-390zM803 1227h65v409h-65 v-409zM803 1249h65v389h-65v-389zM1069 657l68 62v860l-68 61v-983zM1204 778l66 62v614l-66 62v-738z" />
<glyph unicode="q" d="M0 225l68 -51v1290l-68 -51v-1188zM268 61l66 -51v1618l-66 -51v-1516zM535 0h67v410h-67v-410zM535 1225h67v409h-67v-409zM803 33l65 24v426h-65v-450zM803 1143h65v426l-65 24v-450zM936 82l68 24v1393l-68 37v-1454zM1069 119l68 -47v792l-68 47v-792zM1204 43 l66 -47v792l-66 48v-793z" />
<glyph unicode="r" d="M0 0h68v1638h-68v-1638zM133 0h68v1638h-68v-1638zM401 532h66v390h-66v-390zM401 1249h66v389h-66v-389zM668 530l67 -61v453h-67v-392zM668 1249h67v389h-67v-389zM936 268l68 -67v434l-68 82v-449zM936 1249h68v389h-68v-389zM1069 133l68 -72v418l-68 82v-428z M1069 819l68 51v717l-68 51v-819zM1204 0h66v342l-66 78v-420zM1204 911l66 52v542l-66 49v-643z" />
<glyph unicode="s" d="M0 0h68v420l-68 41v-461zM0 993l68 -123v594l-68 -123v-348zM133 -2h68v358l-68 41v-399zM133 829l68 -30v737l-68 -31v-676zM401 -2h66v340h-66v-340zM401 709l66 -25v328l-66 24v-327zM401 1282l66 10v328l-66 -10v-328zM535 -2h67v328h-67v-328zM535 668l67 -25v328 l-67 24v-327zM535 1313h67v327h-67v-327zM803 -2h65v328h-65v-328zM803 606l65 -24v327l-65 25v-328zM803 1313l65 -13v328l-65 12v-327zM936 8l68 31v811l-68 31v-873zM936 1288l68 -31v328l-68 31v-328zM1204 141l66 123v389l-66 123v-635zM1204 1165l66 -41v328l-66 41 v-328z" />
<glyph unicode="t" d="M0 901h68v737h-68v-737zM133 901h68v737h-68v-737zM268 0h66v1638h-66v-1638zM401 0h66v1638h-66v-1638zM535 0h67v1638h-67v-1638zM803 901h65v737h-65v-737zM936 901h68v737h-68v-737z" />
<glyph unicode="u" d="M0 334l68 -47v1351h-68v-1304zM268 170l66 -47v1515h-66v-1468zM535 0h67v758h-67v-758zM668 0h67v758h-67v-758zM936 20l68 62v737h-68v-799zM1069 143l68 62v1433h-68v-1495zM1204 266l66 62v1310h-66v-1372z" />
<glyph unicode="v" d="M0 733l68 -86v991h-68v-905zM268 442l66 -82v1051l-66 62v-1031zM535 141l67 -80v1063l-67 62v-1045zM668 0h67v1145l-67 -82v-1063zM803 100l65 103v1085l-65 -82v-1106zM936 291l68 102v1039l-68 -82v-1059zM1204 666l66 98v874h-66v-972z" />
<glyph unicode="w" d="M0 385l68 -102v1351h-68v-1249zM268 0l66 102v902l-66 -103v-901zM401 225l66 103v880l-66 -102v-881zM535 410l67 102v901l-67 -102v-901zM803 328l65 -113v870l-65 103v-860zM936 109l68 -113v905l-68 103v-895zM1204 283l66 102v1249h-66v-1351z" />
<glyph unicode="x" d="M0 -4h68v450l-68 -61v-389zM0 1270l68 -62v430h-68v-368zM268 0l66 61v635l-66 -61v-635zM268 1001l66 -61v635l-66 61v-635zM535 266l67 62v983l-67 61v-1106zM668 348l67 -61v1028l-67 -62v-905zM803 225l65 -61v1274l-65 -62v-1151zM1069 2h68v559l-68 62v-621z M1069 1042l68 62v532h-68v-594zM1204 0h66v430l-66 62v-492zM1204 1186l66 61v389h-66v-450z" />
<glyph unicode="y" d="M0 879l68 -62v819h-68v-757zM133 776l68 -61v758l-68 61v-758zM401 0h66v1249l-66 62v-1311zM668 0h67v1208l-67 -61v-1147zM803 0h65v1311l-65 -62v-1249zM936 551l68 61v820l-68 -62v-819zM1204 817l66 62v757h-66v-819z" />
<glyph unicode="z" d="M0 2h68v557l-68 -55v-502zM0 1268h68v368h-68v-368zM133 2h68v668l-68 -56v-612zM133 1268h68v368h-68v-368zM268 2h66v782l-66 -55v-727zM268 1268h66v368h-66v-368zM535 2h67v987l-67 -55v-932zM535 1268h67v368h-67v-368zM803 0h65v369h-65v-369zM803 -4h65v369h-65 v-369zM803 758l65 55v825h-65v-880zM936 0h68v369h-68v-369zM936 866l68 56v718h-68v-774zM1204 -2h66v545h-66v-545zM1204 1071l66 55v506h-66v-561z" />
<glyph unicode="{" d="M0 47v334h68v-334h-68zM0 700v725h68v-725h-68zM133 47v334h68v-334h-68zM133 700v725h68v-725h-68zM268 47v334h66v-334h-66zM268 700v725h66v-725h-66zM537 47v334h67v-334h-67zM537 700v725h67v-725h-67zM670 47v334h67v-334h-67zM670 700v725h67v-725h-67zM805 47 v334h65v-334h-65zM805 700v725h65v-725h-65zM1071 47v334h68v-334h-68zM1071 700v725h68v-725h-68z" />
<glyph unicode="|" d="M0 47v551h68v-551h-68zM0 872v553h68v-553h-68zM133 47v551h68v-551h-68zM133 872v553h68v-553h-68zM268 47v551h66v-551h-66zM268 872v553h66v-553h-66zM401 47v551h68v-551h-68zM401 872v553h68v-553h-68zM670 254v965h67v-965h-67zM805 254v965h65v-965h-65zM1071 254 v965h68v-965h-68z" />
<glyph unicode="}" d="M0 0l68 49v549h-68v-598zM0 872h68v381l-68 -51v-330zM182 135v1202l68 52v-1205zM315 238v1202l68 51v-1204zM453 344v1202l67 51v-1204zM584 438l67 -37v1203l-67 38v-1204zM719 360l67 -38v1202l-67 41v-1205zM985 199l68 -39v1202l-68 41v-1204zM1253 39v559h70v-598 zM1253 872h70v330l-70 41v-371z" />
<glyph unicode="&#xa0;" />
<glyph unicode="&#xad;" d="M0 655h68v328h-68v-328zM133 655h68v328h-68v-328zM268 655h66v328h-66v-328zM401 655h66v328h-66v-328zM668 655h67v328h-67v-328zM803 655h65v328h-65v-328zM1069 655h68v328h-68v-328z" />
<glyph unicode="&#x2000;" horiz-adv-x="821" />
<glyph unicode="&#x2001;" horiz-adv-x="1642" />
<glyph unicode="&#x2002;" horiz-adv-x="821" />
<glyph unicode="&#x2003;" horiz-adv-x="1642" />
<glyph unicode="&#x2004;" horiz-adv-x="547" />
<glyph unicode="&#x2005;" horiz-adv-x="410" />
<glyph unicode="&#x2006;" horiz-adv-x="273" />
<glyph unicode="&#x2007;" horiz-adv-x="273" />
<glyph unicode="&#x2008;" horiz-adv-x="205" />
<glyph unicode="&#x2009;" horiz-adv-x="328" />
<glyph unicode="&#x200a;" horiz-adv-x="91" />
<glyph unicode="&#x2010;" d="M0 655h68v328h-68v-328zM133 655h68v328h-68v-328zM268 655h66v328h-66v-328zM401 655h66v328h-66v-328zM668 655h67v328h-67v-328zM803 655h65v328h-65v-328zM1069 655h68v328h-68v-328z" />
<glyph unicode="&#x2011;" d="M0 655h68v328h-68v-328zM133 655h68v328h-68v-328zM268 655h66v328h-66v-328zM401 655h66v328h-66v-328zM668 655h67v328h-67v-328zM803 655h65v328h-65v-328zM1069 655h68v328h-68v-328z" />
<glyph unicode="&#x2012;" d="M0 655h68v328h-68v-328zM133 655h68v328h-68v-328zM268 655h66v328h-66v-328zM401 655h66v328h-66v-328zM668 655h67v328h-67v-328zM803 655h65v328h-65v-328zM1069 655h68v328h-68v-328z" />
<glyph unicode="&#x2013;" d="M0 655h68v328h-68v-328zM133 655h68v328h-68v-328zM268 655h66v328h-66v-328zM401 655h66v328h-66v-328zM668 655h67v328h-67v-328zM803 655h65v328h-65v-328zM1069 655h68v328h-68v-328z" />
<glyph unicode="&#x2014;" d="M0 655h68v328h-68v-328zM133 655h68v328h-68v-328zM268 655h66v328h-66v-328zM401 655h66v328h-66v-328zM668 655h67v328h-67v-328zM803 655h65v328h-65v-328zM1069 655h68v328h-68v-328z" />
<glyph unicode="&#x2018;" d="M0 1044l68 -143v737h-68v-594zM268 819h66v819h-66v-819zM535 819h67v819h-67v-819zM668 901l67 143v594h-67v-737z" />
<glyph unicode="&#x2019;" d="M0 1044l68 -143v737h-68v-594zM268 819h66v819h-66v-819zM535 819h67v819h-67v-819zM668 901l67 143v594h-67v-737z" />
<glyph unicode="&#x201c;" d="M0 1210l68 -67v491h-68v-424zM133 1143l68 67v424h-68v-491zM401 1210l66 -67v491h-66v-424zM535 1143l67 67v424h-67v-491z" />
<glyph unicode="&#x201d;" d="M0 1210l68 -67v491h-68v-424zM133 1143l68 67v424h-68v-491zM401 1210l66 -67v491h-66v-424zM535 1143l67 67v424h-67v-491z" />
<glyph unicode="&#x202f;" horiz-adv-x="328" />
<glyph unicode="&#x205f;" horiz-adv-x="410" />
<glyph unicode="&#xe000;" horiz-adv-x="1638" d="M0 0v1638h1638v-1638h-1638z" />
</font>
</defs>
</svg>
